<svg id="Laag_1" data-name="Laag 1" xmlns="http://www.w3.org/2000/svg" viewBox="0 0 1024 1024"><defs><style>.cls-1{fill:none;}.cls-2{fill:#222651;}.cls-3{fill:#f2f2f2;}</style></defs><path class="cls-1" d="M815,246.5q-60.3,0-117.67,82.51a1.37,1.37,0,0,0-.25.78V560.31a1.39,1.39,0,0,0,.34.91q55.49,62.56,105.86,62.56,49.8,0,76.91-52.54t27.1-147.9Q907.25,246.51,815,246.5Z"/><path class="cls-2" d="M230.41,825.22H624.9V268.9H230.41Zm46-343.13a2.89,2.89,0,0,1-2.89,2.89h0a2.89,2.89,0,0,1-2.9-2.89V359.79a2.9,2.9,0,0,1,2.9-2.9h0a2.89,2.89,0,0,1,2.89,2.9Zm29.22,229.23a2.9,2.9,0,1,1-5.79,0V694.17a2.9,2.9,0,0,1,5.79,0Zm0-52.11a2.9,2.9,0,1,1-5.79,0v-78a2.9,2.9,0,1,1,5.79,0Zm31.67-110.9a2.9,2.9,0,0,1-5.79,0V502.66a2.9,2.9,0,0,1,5.79,0Zm0-71.44a2.9,2.9,0,1,1-5.79,0V437a2.9,2.9,0,0,1,5.79,0ZM404.26,772a2.9,2.9,0,1,1-5.79,0V757.29a2.9,2.9,0,1,1,5.79,0ZM414,369a2.9,2.9,0,1,1-5.79,0V345.86a2.9,2.9,0,1,1,5.79,0Zm53.11,296.2a2.9,2.9,0,1,1-5.79,0V517.06a2.9,2.9,0,0,1,5.79,0Zm94.35,90.83a2.9,2.9,0,1,1-5.79,0V718.86a2.9,2.9,0,1,1,5.79,0Zm25.3-91.82a2.9,2.9,0,1,1-5.79,0V606.57a2.9,2.9,0,1,1,5.79,0Zm-2.87-92.48A11.92,11.92,0,1,1,572,583.67,11.92,11.92,0,0,1,583.89,571.75ZM570.48,697.87A11.92,11.92,0,1,1,558.56,686,11.92,11.92,0,0,1,570.48,697.87ZM554.6,448.25a2.89,2.89,0,0,1,2.89,2.9v23.16a2.9,2.9,0,1,1-5.79,0V451.15A2.9,2.9,0,0,1,554.6,448.25Zm-2.9-20.54V382.86a2.9,2.9,0,1,1,5.79,0v44.85a2.9,2.9,0,1,1-5.79,0Zm2.9-75.48a11.92,11.92,0,1,1-11.93,11.92A11.92,11.92,0,0,1,554.6,352.23ZM464.22,479.77a11.92,11.92,0,1,1-11.92,11.92A11.92,11.92,0,0,1,464.22,479.77ZM411.11,312.5a11.92,11.92,0,1,1-11.92,11.92A11.92,11.92,0,0,1,411.11,312.5Zm-9.75,349.61A11.92,11.92,0,1,1,389.44,674,11.91,11.91,0,0,1,401.36,662.11Zm-66.91-259A11.92,11.92,0,1,1,322.52,415,11.92,11.92,0,0,1,334.45,403.11ZM302.77,546.53a11.93,11.93,0,1,1-11.92,11.92A11.93,11.93,0,0,1,302.77,546.53ZM273.25,319.12A11.92,11.92,0,1,1,261.33,331,11.93,11.93,0,0,1,273.25,319.12Z"/><rect class="cls-3" x="230.41" y="185.51" width="394.49" height="24.06"/><rect class="cls-3" x="230.41" y="209.56" width="394.49" height="59.34"/><path class="cls-3" d="M619.75,73.51a80.35,80.35,0,0,0-13.52,1.17,72.1,72.1,0,0,0-92.32,17.81c-.8,0-1.6-.07-2.41-.07A67.22,67.22,0,0,0,461,115.26a47.69,47.69,0,0,0-66.05-1.3,64.77,64.77,0,0,0-38.79,2.43,63.31,63.31,0,0,0-100.69,2.09,57.73,57.73,0,0,0-98.13,31.75h-.67V178.8a1.36,1.36,0,0,1,1.35-1.36H695.8a79.82,79.82,0,0,0-76-103.94Z"/><path class="cls-3" d="M943,232.6q-41.19-66.28-113-66.28-86.09,0-130.35,99.68a1.35,1.35,0,0,1-2.59-.54V184.15a1.36,1.36,0,0,1-1.35,1.36H624.9V825.22H230.41V185.51H158a1.36,1.36,0,0,1-1.35-1.36v654a38.51,38.51,0,0,0-9.8,25.71h0a38.65,38.65,0,0,0,38.65,38.65h482.7a38.64,38.64,0,0,0,38.65-38.65h0a38.51,38.51,0,0,0-9.8-25.71V628.08a1.35,1.35,0,0,1,2.45-.78q46.26,65.09,115.1,65.08,76.17,0,122.87-76.71t46.69-201.85Q984.15,298.88,943,232.6Zm-62.8,338.64q-27.1,52.54-76.91,52.54-50.38,0-105.86-62.56a1.39,1.39,0,0,1-.34-.91V329.79a1.37,1.37,0,0,1,.25-.78Q754.65,246.51,815,246.5q92.28,0,92.29,176.84Q907.25,518.71,880.15,571.24Z"/><circle class="cls-3" cx="464.22" cy="491.69" r="11.92"/><circle class="cls-3" cx="273.25" cy="331.04" r="11.92"/><circle class="cls-3" cx="334.45" cy="415.03" r="11.92"/><circle class="cls-3" cx="554.6" cy="364.15" r="11.92"/><circle class="cls-3" cx="558.56" cy="697.87" r="11.92"/><circle class="cls-3" cx="302.77" cy="558.45" r="11.92"/><circle class="cls-3" cx="401.36" cy="674.03" r="11.92"/><circle class="cls-3" cx="411.11" cy="324.42" r="11.92"/><path class="cls-3" d="M464.22,514.17a2.89,2.89,0,0,0-2.9,2.89V665.22a2.9,2.9,0,1,0,5.79,0V517.06A2.89,2.89,0,0,0,464.22,514.17Z"/><circle class="cls-3" cx="583.89" cy="583.67" r="11.92"/><rect class="cls-3" x="270.66" y="356.89" width="5.79" height="128.09" rx="2.9"/><path class="cls-3" d="M558.56,716a2.89,2.89,0,0,0-2.89,2.9v37.19a2.9,2.9,0,1,0,5.79,0V718.86A2.9,2.9,0,0,0,558.56,716Z"/><path class="cls-3" d="M401.36,754.39a2.89,2.89,0,0,0-2.89,2.9V772a2.9,2.9,0,1,0,5.79,0V757.29A2.9,2.9,0,0,0,401.36,754.39Z"/><path class="cls-3" d="M583.86,603.67a2.89,2.89,0,0,0-2.89,2.9v57.66a2.9,2.9,0,1,0,5.79,0V606.57A2.9,2.9,0,0,0,583.86,603.67Z"/><path class="cls-3" d="M302.77,578.3a2.89,2.89,0,0,0-2.89,2.9v78a2.9,2.9,0,1,0,5.79,0v-78A2.9,2.9,0,0,0,302.77,578.3Z"/><path class="cls-3" d="M302.77,691.28a2.89,2.89,0,0,0-2.89,2.89v17.15a2.9,2.9,0,1,0,5.79,0V694.17A2.89,2.89,0,0,0,302.77,691.28Z"/><path class="cls-3" d="M411.11,343a2.9,2.9,0,0,0-2.9,2.9V369a2.9,2.9,0,1,0,5.79,0V345.86A2.89,2.89,0,0,0,411.11,343Z"/><path class="cls-3" d="M334.45,499.77a2.89,2.89,0,0,0-2.9,2.89v45.65a2.9,2.9,0,0,0,5.79,0V502.66A2.89,2.89,0,0,0,334.45,499.77Z"/><path class="cls-3" d="M334.45,434.11a2.9,2.9,0,0,0-2.9,2.89v39.87a2.9,2.9,0,1,0,5.79,0V437A2.9,2.9,0,0,0,334.45,434.11Z"/><path class="cls-3" d="M551.7,474.31a2.9,2.9,0,1,0,5.79,0V451.15a2.9,2.9,0,1,0-5.79,0Z"/><path class="cls-3" d="M554.6,430.61a2.89,2.89,0,0,0,2.89-2.9V382.86a2.9,2.9,0,1,0-5.79,0v44.85A2.9,2.9,0,0,0,554.6,430.61Z"/></svg>